<?xml version="1.0" encoding="UTF-8"?>
<svg version="1.1" xmlns="http://www.w3.org/2000/svg" width="1080" height="1080">
<path d="M0 0 C356.4 0 712.8 0 1080 0 C1080 356.4 1080 712.8 1080 1080 C723.6 1080 367.2 1080 0 1080 C0 723.6 0 367.2 0 0 Z " fill="#FEFEFE" transform="translate(0,0)"/>
<path d="M0 0 C6.32205338 -0.40057088 11.59108096 1.08792013 17.625 2.875 C24.99076971 4.98204097 32.12054517 6.74896689 39.734375 7.67578125 C42 8 42 8 44 9 C42.72955664 17.8967674 41.11117135 26.66005182 39.1875 35.4375 C38.92469238 36.64744629 38.66188477 37.85739258 38.39111328 39.10400391 C37.5992998 42.73717103 36.80061535 46.36876349 36 50 C35.76845215 51.05687012 35.5369043 52.11374023 35.29833984 53.20263672 C33.08431455 63.28257917 30.7748352 73.27655017 27.83203125 83.171875 C27.1522345 85.48254566 26.54790374 87.78092487 26 90.125 C23.32506189 100.87087206 20.54359369 110.61157996 10.875 116.9375 C4.2748198 120.8472453 -3.54001355 121.51605679 -11 120 C-18.3935131 117.52813478 -25.39452074 113.98898263 -32.43017578 110.66015625 C-38.06838938 108.03809002 -43.78174936 105.59572336 -49.49633789 103.14578247 C-52.67663494 101.78057666 -55.85204542 100.40412735 -59.02734375 99.02734375 C-60.2169873 98.51155762 -61.40663086 97.99577148 -62.63232422 97.46435547 C-67.26226983 95.45113133 -71.88480148 93.42179132 -76.5 91.375 C-77.19279053 91.06860596 -77.88558105 90.76221191 -78.59936523 90.4465332 C-82.45334962 88.72970078 -86.23188023 86.89662028 -90 85 C-89.99111755 86.04268036 -89.98223511 87.08536072 -89.9730835 88.15963745 C-89.89177409 98.01627771 -89.83192763 107.87284935 -89.79275131 117.72974968 C-89.77193279 122.79653852 -89.7437205 127.86305523 -89.69824219 132.9296875 C-89.65457916 137.82507097 -89.63081981 142.72019372 -89.62049103 147.61575699 C-89.61313624 149.4775617 -89.59877447 151.33935316 -89.57707977 153.20104599 C-89.33719794 174.65148255 -89.33719794 174.65148255 -95.8180542 182.0854187 C-101.65948562 187.87071477 -108.9272349 191.09546091 -117.125 191.5625 C-123.83357022 191.25714439 -129.95061355 189.11936046 -136.24316406 186.94677734 C-140.22208755 185.58029972 -144.21497442 184.25615788 -148.20701599 182.9286499 C-151.47341239 181.84223162 -154.73885246 180.75324799 -158.0012207 179.65478516 C-163.90418972 177.67231504 -169.81147762 175.73277628 -175.76953125 173.921875 C-182.28343318 171.93929658 -188.68150695 169.68819576 -195.0859375 167.38085938 C-195.91351563 167.08630859 -196.74109375 166.79175781 -197.59375 166.48828125 C-198.32271484 166.22571533 -199.05167969 165.96314941 -199.80273438 165.69262695 C-202.18109033 164.9429163 -204.55325824 164.47296195 -207 164 C-206.99111755 165.12006943 -206.98223511 166.24013885 -206.9730835 167.39414978 C-206.89184346 177.97219732 -206.83196062 188.55018119 -206.79275131 199.12847042 C-206.77191541 204.5663298 -206.74367072 210.00393644 -206.69824219 215.44165039 C-206.65464202 220.69363945 -206.63083285 225.94538606 -206.62049103 231.19754219 C-206.61312508 233.19693376 -206.5987412 235.19631271 -206.57707977 237.19560051 C-206.5478574 240.00560607 -206.54405184 242.81462175 -206.54589844 245.62475586 C-206.53151733 246.44331558 -206.51713623 247.26187531 -206.50231934 248.10523987 C-206.55471897 255.51978847 -209.10665374 261.10429395 -213.125 267.25 C-218.66209496 272.5463517 -224.35175576 275.27728114 -232.0625 275.5625 C-240.11589504 275.20020074 -245.99645836 272.2641274 -252 267 C-257.63207277 258.91301974 -258.87313921 251.33210055 -258.76049805 241.67919922 C-258.76940567 240.40603851 -258.77831329 239.13287781 -258.78749084 237.82113647 C-258.81033833 234.36635402 -258.79599583 230.91269276 -258.77302146 227.45794821 C-258.75393499 223.82181574 -258.76528993 220.18575037 -258.77192688 216.54959106 C-258.77824291 210.44873488 -258.76012267 204.34832172 -258.72729492 198.24755859 C-258.68977549 191.21721408 -258.69160103 184.18770697 -258.7143361 177.157318 C-258.73535705 170.36128612 -258.72797262 163.56556067 -258.70801735 156.76953506 C-258.70007859 153.89172616 -258.70196525 151.0141798 -258.71204185 148.13637924 C-258.72464965 144.11111904 -258.69571075 140.08715749 -258.6628418 136.06201172 C-258.67139191 134.88251953 -258.67994202 133.70302734 -258.68875122 132.48779297 C-258.57009136 124.0367664 -256.87081263 117.19684682 -251.02431774 110.85790825 C-245.99644312 106.10510288 -241.08974859 103.34884258 -234.125 102.5625 C-221.17703626 103.06639707 -208.26510034 108.04345241 -196.14599609 112.25634766 C-186.16374546 115.71549844 -176.10885721 118.93189461 -166 122 C-163.56222187 122.7490955 -161.12471498 123.4990743 -158.6875 124.25 C-157.05361328 124.75273438 -157.05361328 124.75273438 -155.38671875 125.265625 C-154.20529297 125.62914062 -154.20529297 125.62914062 -153 126 C-153 126.66 -153 127.32 -153 128 C-147.06 128.99 -147.06 128.99 -141 130 C-141.01332367 128.34201889 -141.01332367 128.34201889 -141.0269165 126.65054321 C-141.1082017 116.20525338 -141.16806091 105.7600282 -141.20724869 95.31449318 C-141.22807324 89.94504175 -141.25629689 84.57584681 -141.30175781 79.20654297 C-141.34539886 74.01938754 -141.36917567 68.83247797 -141.37950897 63.64515305 C-141.38686765 61.67170724 -141.40123711 59.69827403 -141.42292023 57.72493362 C-141.67398034 33.91741609 -141.67398034 33.91741609 -132.67578125 24.47265625 C-126.84139884 19.34547171 -121.2162749 18.27161819 -113.51171875 18.5703125 C-99.27584953 20.31218749 -85.7445643 27.94262415 -72.82666016 33.74316406 C-69.28039954 35.31996055 -65.70729472 36.81954807 -62.125 38.3125 C-57.1163727 40.43625618 -52.39328622 42.86372524 -47.6953125 45.60546875 C-44.93893045 47.03159685 -42.12948704 48.04790164 -39.21679688 49.10522461 C-34.14620229 51.15189081 -29.41473397 53.96600402 -24.62695312 56.59179688 C-23.81548828 57.02943359 -23.00402344 57.46707031 -22.16796875 57.91796875 C-21.43860107 58.31781982 -20.7092334 58.7176709 -19.95776367 59.12963867 C-17.90020109 60.20311681 -17.90020109 60.20311681 -15 60 C-10.10069614 43.90228731 -6.33662258 27.6493096 -2.72460938 11.22802734 C-1.88031396 7.46681644 -0.96489654 3.73187925 0 0 Z " fill="#A03DF1" transform="translate(628,427)"/>
<path d="M0 0 C4.13023059 1.91509919 6.0158052 5.50594116 8.46484375 9.234375 C9.47275061 10.72607716 10.48186296 12.21696551 11.4921875 13.70703125 C12.24024658 14.82102295 12.24024658 14.82102295 13.00341797 15.95751953 C14.96982953 18.81483336 17.05823976 21.56882311 19.15698242 24.32958984 C21.05034371 26.87498523 22.76791182 29.53272711 24.52734375 32.171875 C26.05436621 34.16236218 27.59690653 36.14101226 29.15234375 38.109375 C32.95606575 43.01478038 36.62962701 47.99806927 40.15234375 53.109375 C40.5901416 53.72353271 41.02793945 54.33769043 41.47900391 54.97045898 C44.10690844 58.8530477 45.02740904 61.49269267 44.52734375 66.171875 C36.55750805 65.63330582 28.89663249 64.40274169 21.08984375 62.734375 C20.02830078 62.51716797 18.96675781 62.29996094 17.87304688 62.07617188 C13.42237713 61.13992865 9.58045503 60.24762904 5.52734375 58.171875 C3.00350672 57.63446934 0.50745382 57.15613496 -2.03515625 56.734375 C-6.55542025 55.98025396 -10.9542264 55.07407297 -15.3671875 53.828125 C-23.36592539 51.58997465 -31.48720271 49.88749288 -39.59765625 48.109375 C-41.20578444 47.75480789 -42.81385773 47.39999168 -44.421875 47.04492188 C-45.98306785 46.70049787 -47.54426566 46.35609634 -49.10546875 46.01171875 C-50.22517059 45.76462662 -50.22517059 45.76462662 -51.36749268 45.51254272 C-54.42906244 44.83790479 -57.49109155 44.16795626 -60.55761719 43.51611328 C-66.3708207 42.27371055 -66.3708207 42.27371055 -67.47265625 41.171875 C-67.51329457 39.50570385 -67.51537725 37.83799405 -67.47265625 36.171875 C-66.78228271 35.79901367 -66.09190918 35.42615234 -65.38061523 35.04199219 C-62.22332737 33.33615141 -59.06673692 31.62902401 -55.91015625 29.921875 C-54.82412109 29.33535156 -53.73808594 28.74882812 -52.61914062 28.14453125 C-47.2003238 25.21277017 -41.80538592 22.25728437 -36.47265625 19.171875 C-34.86623368 18.24809204 -33.25942926 17.32497292 -31.65234375 16.40234375 C-30.79318359 15.90887451 -29.93402344 15.41540527 -29.04882812 14.90698242 C-25.37590763 12.80262206 -21.69577559 10.71105797 -18.01464844 8.62109375 C-15.79850698 7.35764622 -13.59160626 6.07979991 -11.38671875 4.796875 C-10.26007812 4.1575 -9.1334375 3.518125 -7.97265625 2.859375 C-6.5340625 2.02986328 -6.5340625 2.02986328 -5.06640625 1.18359375 C-2.47265625 0.171875 -2.47265625 0.171875 0 0 Z " fill="#FBAC6D" transform="translate(664.47265625,377.828125)"/>
</svg>
